<svg width="166" height="52" viewBox="0 0 166 52" fill="none" xmlns="http://www.w3.org/2000/svg">
<path d="M41.3145 50L24.2246 50.8203L24.0879 35.0293H16.2266L15.748 50H0.435547L1.73438 1.94336L18.0039 2.69531L16.9785 27.2363H24.5664L24.6348 0.849609L40.2207 1.25977L41.3145 50ZM109.653 0.166016L106.509 50.3418L90.9229 51.0254L91.0596 24.5703L84.0186 45.8984H78.0029L72.6025 26.8262L72.5342 48.9746L56.7432 49.4531L57.4268 2.2168L74.9951 1.5332L81.9678 24.1602L91.2646 0.166016H109.653ZM165.004 50L147.914 50.8203L147.777 35.0293H139.916L139.438 50H124.125L125.424 1.94336L141.693 2.69531L140.668 27.2363H148.256L148.324 0.849609L163.91 1.25977L165.004 50Z" fill="#28CBFF"/>
</svg>
